<?xml version="1.0" standalone="no"?>
<!DOCTYPE svg PUBLIC "-//W3C//DTD SVG 1.1//EN"
  "http://www.w3.org/Graphics/SVG/1.1/DTD/svg11.dtd">
<svg version="1.1" xmlns="http://www.w3.org/2000/svg" xmlns:xlink="http://www.w3.org/1999/xlink" width="1280" height="720" viewBox="0 0 1280 950" id="ccdiagram"><filter id="grayscale"><feColorMatrix type="matrix" values="0.3333 0.3333 0.3333 0 0 0.3333 0.3333 0.3333 0 0 0.3333 0.3333 0.3333 0 0 0 0 0 1 0"></feColorMatrix></filter><defs><style type="text/css">@import url('https://fonts.googleapis.com/css?family=Open+Sans:400,700|Inconsolata:400');</style></defs><g><g pointer-events="auto"></g><g pointer-events="auto"></g><g></g><g pointer-events="auto"></g><g></g><g pointer-events="auto"><g opacity="1"><g id="1153f172-654b-428a-80a7-c60ac04d9698"><svg x="68" y="405" overflow="visible"><polygon points="0 0, 945 0, 945 90, 0 90" fill="#e6e7e8"></polygon><polygon points="0 0, 945 0, 945 90, 0 90" fill="none" stroke-width="20" stroke="#e6e7e8" opacity="1"></polygon><g cursor="nwse-resize"><polygon points="0 0, -27 0, -27 -45, -72 45, -27 135, -27 90, 0 90" fill="#e6e7e8"></polygon><polygon points="945 0, 972 0, 972 -45, 1017 45, 972 135, 972 90, 945 90" fill="#e6e7e8"></polygon></g></svg></g></g></g><g pointer-events="none"></g><g pointer-events="auto"><g><g cursor="cell"><line x1="315" y1="765" x2="270" y2="900" stroke="red" stroke-width="8" opacity="0"></line><line x1="315" y1="765" x2="270" y2="900" stroke="#000000" stroke-width="2" stroke-linecap="round"></line></g></g><g><g cursor="cell"><line x1="585" y1="135" x2="585" y2="212" stroke="red" stroke-width="8" opacity="0"></line><line x1="585" y1="135" x2="585" y2="212" stroke="#000000" stroke-width="2" stroke-linecap="round"></line><polygon points="585 225, 596 201, 585 207, 574 201, 585 225" stroke-linejoin="round" fill="#000000" stroke="#000000" stroke-width="1"></polygon></g></g><g><g cursor="cell"><line x1="540" y1="765" x2="405" y2="765" stroke="red" stroke-width="12" opacity="0"></line><line x1="540" y1="765" x2="405" y2="765" stroke="#000000" stroke-width="6" stroke-linecap="round"></line></g></g><g><g cursor="cell"><line x1="945" y1="135" x2="945" y2="212" stroke="red" stroke-width="8" opacity="0"></line><line x1="945" y1="135" x2="945" y2="212" stroke="#000000" stroke-width="2" stroke-linecap="round"></line><polygon points="945 225, 956 201, 945 207, 934 201, 945 225" stroke-linejoin="round" fill="#000000" stroke="#000000" stroke-width="1"></polygon></g></g><g><g cursor="cell"><line x1="585" y1="585" x2="540" y2="765" stroke="red" stroke-width="12" opacity="0"></line><line x1="585" y1="585" x2="540" y2="765" stroke="#000000" stroke-width="6" stroke-linecap="round"></line></g></g><g><g cursor="cell"><line x1="135" y1="585" x2="0" y2="585" stroke="red" stroke-width="12" opacity="0"></line><line x1="135" y1="585" x2="0" y2="585" stroke="#000000" stroke-width="6" stroke-linecap="round"></line></g></g><g><g cursor="cell"><line x1="405" y1="135" x2="405" y2="212" stroke="red" stroke-width="8" opacity="0"></line><line x1="405" y1="135" x2="405" y2="212" stroke="#000000" stroke-width="2" stroke-linecap="round"></line><polygon points="405 225, 416 201, 405 207, 394 201, 405 225" stroke-linejoin="round" fill="#000000" stroke="#000000" stroke-width="1"></polygon></g></g><g><g cursor="cell"><line x1="585" y1="585" x2="765" y2="585" stroke="red" stroke-width="12" opacity="0"></line><line x1="585" y1="585" x2="765" y2="585" stroke="#000000" stroke-width="6" stroke-linecap="round"></line></g></g><g><g cursor="cell"><line x1="765" y1="585" x2="945" y2="585" stroke="red" stroke-width="12" opacity="0"></line><line x1="765" y1="585" x2="945" y2="585" stroke="#000000" stroke-width="6" stroke-linecap="round"></line></g></g><g><g cursor="cell"><line x1="225" y1="405" x2="225" y2="203" stroke="red" stroke-width="8" opacity="0"></line><line x1="225" y1="405" x2="225" y2="203" stroke="#000000" stroke-width="2" stroke-linecap="round"></line></g></g><g><g cursor="cell"><line x1="405" y1="135" x2="585" y2="135" stroke="red" stroke-width="8" opacity="0"></line><line x1="405" y1="135" x2="585" y2="135" stroke="#000000" stroke-width="2" stroke-linecap="round"></line></g></g><g><g cursor="cell"><line x1="360" y1="765" x2="315" y2="900" stroke="red" stroke-width="8" opacity="0"></line><line x1="360" y1="765" x2="315" y2="900" stroke="#000000" stroke-width="2" stroke-linecap="round"></line></g></g><g><g cursor="cell"><line x1="765" y1="135" x2="765" y2="212" stroke="red" stroke-width="8" opacity="0"></line><line x1="765" y1="135" x2="765" y2="212" stroke="#000000" stroke-width="2" stroke-linecap="round"></line><polygon points="765 225, 776 201, 765 207, 754 201, 765 225" stroke-linejoin="round" fill="#000000" stroke="#000000" stroke-width="1"></polygon></g></g><g><g cursor="cell"><line x1="765" y1="135" x2="945" y2="135" stroke="red" stroke-width="8" opacity="0"></line><line x1="765" y1="135" x2="945" y2="135" stroke="#000000" stroke-width="2" stroke-linecap="round"></line></g></g><g><g cursor="cell"><line x1="945" y1="585" x2="900" y2="720" stroke="red" stroke-width="8" opacity="0"></line><line x1="945" y1="585" x2="900" y2="720" stroke="#000000" stroke-width="2" stroke-linecap="round"></line></g></g><g><g cursor="cell"><line x1="585" y1="135" x2="765" y2="135" stroke="red" stroke-width="8" opacity="0"></line><line x1="585" y1="135" x2="765" y2="135" stroke="#000000" stroke-width="2" stroke-linecap="round"></line></g></g><g><g cursor="cell"><line x1="945" y1="585" x2="1080" y2="585" stroke="red" stroke-width="12" opacity="0"></line><line x1="945" y1="585" x2="1080" y2="585" stroke="#000000" stroke-width="6" stroke-linecap="round"></line></g></g><g><g cursor="cell"><line x1="585" y1="585" x2="585" y2="374" stroke="red" stroke-width="8" opacity="0"></line><line x1="585" y1="585" x2="585" y2="374" stroke="#000000" stroke-width="2" stroke-dasharray="8,6" stroke-linecap="butt"></line><polygon points="585 360, 574 384, 585 378, 596 384, 585 360" stroke-linejoin="round" fill="#000000" stroke="#000000" stroke-width="1"></polygon></g></g><g><g cursor="cell"><line x1="135" y1="585" x2="585" y2="585" stroke="red" stroke-width="12" opacity="0"></line><line x1="135" y1="585" x2="585" y2="585" stroke="#000000" stroke-width="6" stroke-linecap="round"></line></g></g><g><g cursor="cell"><line x1="765" y1="585" x2="720" y2="720" stroke="red" stroke-width="8" opacity="0"></line><line x1="765" y1="585" x2="720" y2="720" stroke="#000000" stroke-width="2" stroke-linecap="round"></line></g></g><g><g cursor="cell"><line x1="405" y1="765" x2="405" y2="374" stroke="red" stroke-width="8" opacity="0"></line><line x1="405" y1="765" x2="405" y2="374" stroke="#000000" stroke-width="2" stroke-dasharray="8,6" stroke-linecap="butt"></line><polygon points="405 360, 394 384, 405 378, 416 384, 405 360" stroke-linejoin="round" fill="#000000" stroke="#000000" stroke-width="1"></polygon></g></g><g><g cursor="cell"><line x1="765" y1="585" x2="765" y2="374" stroke="red" stroke-width="8" opacity="0"></line><line x1="765" y1="585" x2="765" y2="374" stroke="#000000" stroke-width="2" stroke-dasharray="8,6" stroke-linecap="butt"></line><polygon points="765 360, 754 384, 765 378, 776 384, 765 360" stroke-linejoin="round" fill="#000000" stroke="#000000" stroke-width="1"></polygon></g></g><g><g cursor="cell"><line x1="405" y1="135" x2="293" y2="135" stroke="red" stroke-width="8" opacity="0"></line><line x1="405" y1="135" x2="293" y2="135" stroke="#000000" stroke-width="2" stroke-linecap="round"></line></g></g><g><g cursor="cell"><line x1="315" y1="765" x2="405" y2="765" stroke="red" stroke-width="12" opacity="0"></line><line x1="315" y1="765" x2="405" y2="765" stroke="#000000" stroke-width="6" stroke-linecap="round"></line></g></g><g><g cursor="cell"><line x1="180" y1="765" x2="315" y2="765" stroke="red" stroke-width="12" opacity="0"></line><line x1="180" y1="765" x2="315" y2="765" stroke="#000000" stroke-width="6" stroke-linecap="round"></line></g></g><g><g cursor="cell"><line x1="945" y1="585" x2="945" y2="374" stroke="red" stroke-width="8" opacity="0"></line><line x1="945" y1="585" x2="945" y2="374" stroke="#000000" stroke-width="2" stroke-dasharray="8,6" stroke-linecap="butt"></line><polygon points="945 360, 934 384, 945 378, 956 384, 945 360" stroke-linejoin="round" fill="#000000" stroke="#000000" stroke-width="1"></polygon></g></g><g><g cursor="cell"><line x1="135" y1="585" x2="180" y2="765" stroke="red" stroke-width="12" opacity="0"></line><line x1="135" y1="585" x2="180" y2="765" stroke="#000000" stroke-width="6" stroke-linecap="round"></line></g></g><g><g cursor="cell"><line x1="405" y1="765" x2="360" y2="900" stroke="red" stroke-width="8" opacity="0"></line><line x1="405" y1="765" x2="360" y2="900" stroke="#000000" stroke-width="2" stroke-linecap="round"></line></g></g></g><g pointer-events="auto"><g opacity="1"><g id="d947b407-50aa-4928-ac83-9e8d4e80998c" transform="translate(0 0)"><svg x="360" y="270" height="90" id="svg51" width="90" version="1.1"><defs id="defs4"></defs><g id="Working" transform="translate(0 40)"><g id="g883" transform="matrix(1.83333 0 0 1.83333 -.833 -40.833)"><path class="cls-1" id="path8" d="M44.31 44.31H5.69V5.69h38.62zm-36.62-2h34.62V7.69H7.69z" fill="#000" fill-opacity="1"></path><path class="cls-1" id="rect10" d="M11.21 1h2v5.69h-2z" fill="#000" fill-opacity="1"></path><path class="cls-1" id="rect12" d="M17.48 1h2v5.69h-2z" fill="#000" fill-opacity="1"></path><path class="cls-1" id="rect14" d="M23.76 1h2v5.69h-2z" fill="#000" fill-opacity="1"></path><path class="cls-1" id="rect16" d="M30.04 1h2v5.69h-2z" fill="#000" fill-opacity="1"></path><path class="cls-1" id="rect18" d="M36.32 1h2v5.69h-2z" fill="#000" fill-opacity="1"></path><path class="cls-1" id="rect20" d="M11.21 43.31h2V49h-2z" fill="#000" fill-opacity="1"></path><path class="cls-1" id="rect22" d="M17.48 43.31h2V49h-2z" fill="#000" fill-opacity="1"></path><path class="cls-1" id="rect24" d="M23.76 43.31h2V49h-2z" fill="#000" fill-opacity="1"></path><path class="cls-1" id="rect26" d="M30.04 43.31h2V49h-2z" fill="#000" fill-opacity="1"></path><path class="cls-1" id="rect28" d="M36.32 43.31h2V49h-2z" fill="#000" fill-opacity="1"></path><path class="cls-1" id="rect30" d="M43.31 11.45H49v2h-5.69z" fill="#000" fill-opacity="1"></path><path class="cls-1" id="rect32" d="M43.31 17.72H49v2h-5.69z" fill="#000" fill-opacity="1"></path><path class="cls-1" id="rect34" d="M43.31 24H49v2h-5.69z" fill="#000" fill-opacity="1"></path><path class="cls-1" id="rect36" d="M43.31 30.28H49v2h-5.69z" fill="#000" fill-opacity="1"></path><path class="cls-1" id="rect38" d="M43.31 36.55H49v2h-5.69z" fill="#000" fill-opacity="1"></path><path class="cls-1" id="rect40" d="M1 11.45h5.69v2H1z" fill="#000" fill-opacity="1"></path><path class="cls-1" id="rect42" d="M1 17.72h5.69v2H1z" fill="#000" fill-opacity="1"></path><path class="cls-1" id="rect44" d="M1 24h5.69v2H1z" fill="#000" fill-opacity="1"></path><path class="cls-1" id="rect46" d="M1 30.28h5.69v2H1z" fill="#000" fill-opacity="1"></path><path class="cls-1" id="rect48" d="M1 36.55h5.69v2H1z" fill="#000" fill-opacity="1"></path><path id="rect836" d="M7.69 7.69h34.62v34.62H7.69z" fill="#000" fill-opacity="1" opacity=".05" stroke="#000" stroke-opacity="0" stroke-width=".545"></path></g></g></svg><svg x="378" y="297" width="54" height="36" style="overflow: visible; cursor: default;"><text transform="" font-family="Open Sans" text-anchor="middle" x="50%" font-weight="bold" font-size="18pt" y="75%" fill="#000000"><tspan>T3</tspan></text></svg></g></g><g opacity="1"><g id="ae913562-668e-4ba1-89b2-0fd7a033a46a" transform="translate(0 0)"><svg x="540" y="270" height="90" id="svg51" width="90" version="1.1"><defs id="defs4"></defs><g id="Working" transform="translate(0 40)"><g id="g883" transform="matrix(1.83333 0 0 1.83333 -.833 -40.833)"><path class="cls-1" id="path8" d="M44.31 44.31H5.69V5.69h38.62zm-36.62-2h34.62V7.69H7.69z" fill="#000" fill-opacity="1"></path><path class="cls-1" id="rect10" d="M11.21 1h2v5.69h-2z" fill="#000" fill-opacity="1"></path><path class="cls-1" id="rect12" d="M17.48 1h2v5.69h-2z" fill="#000" fill-opacity="1"></path><path class="cls-1" id="rect14" d="M23.76 1h2v5.69h-2z" fill="#000" fill-opacity="1"></path><path class="cls-1" id="rect16" d="M30.04 1h2v5.69h-2z" fill="#000" fill-opacity="1"></path><path class="cls-1" id="rect18" d="M36.32 1h2v5.69h-2z" fill="#000" fill-opacity="1"></path><path class="cls-1" id="rect20" d="M11.21 43.31h2V49h-2z" fill="#000" fill-opacity="1"></path><path class="cls-1" id="rect22" d="M17.48 43.31h2V49h-2z" fill="#000" fill-opacity="1"></path><path class="cls-1" id="rect24" d="M23.76 43.31h2V49h-2z" fill="#000" fill-opacity="1"></path><path class="cls-1" id="rect26" d="M30.04 43.31h2V49h-2z" fill="#000" fill-opacity="1"></path><path class="cls-1" id="rect28" d="M36.32 43.31h2V49h-2z" fill="#000" fill-opacity="1"></path><path class="cls-1" id="rect30" d="M43.31 11.45H49v2h-5.69z" fill="#000" fill-opacity="1"></path><path class="cls-1" id="rect32" d="M43.31 17.72H49v2h-5.69z" fill="#000" fill-opacity="1"></path><path class="cls-1" id="rect34" d="M43.31 24H49v2h-5.69z" fill="#000" fill-opacity="1"></path><path class="cls-1" id="rect36" d="M43.31 30.28H49v2h-5.69z" fill="#000" fill-opacity="1"></path><path class="cls-1" id="rect38" d="M43.31 36.55H49v2h-5.69z" fill="#000" fill-opacity="1"></path><path class="cls-1" id="rect40" d="M1 11.45h5.69v2H1z" fill="#000" fill-opacity="1"></path><path class="cls-1" id="rect42" d="M1 17.72h5.69v2H1z" fill="#000" fill-opacity="1"></path><path class="cls-1" id="rect44" d="M1 24h5.69v2H1z" fill="#000" fill-opacity="1"></path><path class="cls-1" id="rect46" d="M1 30.28h5.69v2H1z" fill="#000" fill-opacity="1"></path><path class="cls-1" id="rect48" d="M1 36.55h5.69v2H1z" fill="#000" fill-opacity="1"></path><path id="rect836" d="M7.69 7.69h34.62v34.62H7.69z" fill="#000" fill-opacity="1" opacity=".05" stroke="#000" stroke-opacity="0" stroke-width=".545"></path></g></g></svg><svg x="558" y="297" width="54" height="36" style="overflow: visible; cursor: default;"><text transform="" font-family="Open Sans" text-anchor="middle" x="50%" font-weight="bold" font-size="18pt" y="75%" fill="#000000"><tspan>T3</tspan></text></svg></g></g><g opacity="1"><g id="ddd1ee1d-ec16-4cdd-8129-dd0b958746fb" transform="translate(0 0)"><svg x="720" y="270" height="90" id="svg51" width="90" version="1.1"><defs id="defs4"></defs><g id="Working" transform="translate(0 40)"><g id="g883" transform="matrix(1.83333 0 0 1.83333 -.833 -40.833)"><path class="cls-1" id="path8" d="M44.31 44.31H5.69V5.69h38.62zm-36.62-2h34.62V7.69H7.69z" fill="#000" fill-opacity="1"></path><path class="cls-1" id="rect10" d="M11.21 1h2v5.69h-2z" fill="#000" fill-opacity="1"></path><path class="cls-1" id="rect12" d="M17.48 1h2v5.69h-2z" fill="#000" fill-opacity="1"></path><path class="cls-1" id="rect14" d="M23.76 1h2v5.69h-2z" fill="#000" fill-opacity="1"></path><path class="cls-1" id="rect16" d="M30.04 1h2v5.69h-2z" fill="#000" fill-opacity="1"></path><path class="cls-1" id="rect18" d="M36.32 1h2v5.69h-2z" fill="#000" fill-opacity="1"></path><path class="cls-1" id="rect20" d="M11.21 43.31h2V49h-2z" fill="#000" fill-opacity="1"></path><path class="cls-1" id="rect22" d="M17.48 43.31h2V49h-2z" fill="#000" fill-opacity="1"></path><path class="cls-1" id="rect24" d="M23.76 43.31h2V49h-2z" fill="#000" fill-opacity="1"></path><path class="cls-1" id="rect26" d="M30.04 43.31h2V49h-2z" fill="#000" fill-opacity="1"></path><path class="cls-1" id="rect28" d="M36.32 43.31h2V49h-2z" fill="#000" fill-opacity="1"></path><path class="cls-1" id="rect30" d="M43.31 11.45H49v2h-5.69z" fill="#000" fill-opacity="1"></path><path class="cls-1" id="rect32" d="M43.31 17.72H49v2h-5.69z" fill="#000" fill-opacity="1"></path><path class="cls-1" id="rect34" d="M43.31 24H49v2h-5.69z" fill="#000" fill-opacity="1"></path><path class="cls-1" id="rect36" d="M43.31 30.28H49v2h-5.69z" fill="#000" fill-opacity="1"></path><path class="cls-1" id="rect38" d="M43.31 36.55H49v2h-5.69z" fill="#000" fill-opacity="1"></path><path class="cls-1" id="rect40" d="M1 11.45h5.69v2H1z" fill="#000" fill-opacity="1"></path><path class="cls-1" id="rect42" d="M1 17.72h5.69v2H1z" fill="#000" fill-opacity="1"></path><path class="cls-1" id="rect44" d="M1 24h5.69v2H1z" fill="#000" fill-opacity="1"></path><path class="cls-1" id="rect46" d="M1 30.28h5.69v2H1z" fill="#000" fill-opacity="1"></path><path class="cls-1" id="rect48" d="M1 36.55h5.69v2H1z" fill="#000" fill-opacity="1"></path><path id="rect836" d="M7.69 7.69h34.62v34.62H7.69z" fill="#000" fill-opacity="1" opacity=".05" stroke="#000" stroke-opacity="0" stroke-width=".545"></path></g></g></svg><svg x="738" y="297" width="54" height="36" style="overflow: visible; cursor: default;"><text transform="" font-family="Open Sans" text-anchor="middle" x="50%" font-weight="bold" font-size="18pt" y="75%" fill="#000000"><tspan>T3</tspan></text></svg></g></g><g opacity="1"><g id="7d11f1b7-61a8-47ed-acd9-e6a95c1a8232" transform="translate(0 0)"><svg x="900" y="270" height="90" id="svg51" width="90" version="1.1"><defs id="defs4"></defs><g id="Working" transform="translate(0 40)"><g id="g883" transform="matrix(1.83333 0 0 1.83333 -.833 -40.833)"><path class="cls-1" id="path8" d="M44.31 44.31H5.69V5.69h38.62zm-36.62-2h34.62V7.69H7.69z" fill="#000" fill-opacity="1"></path><path class="cls-1" id="rect10" d="M11.21 1h2v5.69h-2z" fill="#000" fill-opacity="1"></path><path class="cls-1" id="rect12" d="M17.48 1h2v5.69h-2z" fill="#000" fill-opacity="1"></path><path class="cls-1" id="rect14" d="M23.76 1h2v5.69h-2z" fill="#000" fill-opacity="1"></path><path class="cls-1" id="rect16" d="M30.04 1h2v5.69h-2z" fill="#000" fill-opacity="1"></path><path class="cls-1" id="rect18" d="M36.32 1h2v5.69h-2z" fill="#000" fill-opacity="1"></path><path class="cls-1" id="rect20" d="M11.21 43.31h2V49h-2z" fill="#000" fill-opacity="1"></path><path class="cls-1" id="rect22" d="M17.48 43.31h2V49h-2z" fill="#000" fill-opacity="1"></path><path class="cls-1" id="rect24" d="M23.76 43.31h2V49h-2z" fill="#000" fill-opacity="1"></path><path class="cls-1" id="rect26" d="M30.04 43.31h2V49h-2z" fill="#000" fill-opacity="1"></path><path class="cls-1" id="rect28" d="M36.32 43.31h2V49h-2z" fill="#000" fill-opacity="1"></path><path class="cls-1" id="rect30" d="M43.31 11.45H49v2h-5.69z" fill="#000" fill-opacity="1"></path><path class="cls-1" id="rect32" d="M43.31 17.72H49v2h-5.69z" fill="#000" fill-opacity="1"></path><path class="cls-1" id="rect34" d="M43.31 24H49v2h-5.69z" fill="#000" fill-opacity="1"></path><path class="cls-1" id="rect36" d="M43.31 30.28H49v2h-5.69z" fill="#000" fill-opacity="1"></path><path class="cls-1" id="rect38" d="M43.31 36.55H49v2h-5.69z" fill="#000" fill-opacity="1"></path><path class="cls-1" id="rect40" d="M1 11.45h5.69v2H1z" fill="#000" fill-opacity="1"></path><path class="cls-1" id="rect42" d="M1 17.72h5.69v2H1z" fill="#000" fill-opacity="1"></path><path class="cls-1" id="rect44" d="M1 24h5.69v2H1z" fill="#000" fill-opacity="1"></path><path class="cls-1" id="rect46" d="M1 30.28h5.69v2H1z" fill="#000" fill-opacity="1"></path><path class="cls-1" id="rect48" d="M1 36.55h5.69v2H1z" fill="#000" fill-opacity="1"></path><path id="rect836" d="M7.69 7.69h34.62v34.62H7.69z" fill="#000" fill-opacity="1" opacity=".05" stroke="#000" stroke-opacity="0" stroke-width=".545"></path></g></g></svg><svg x="918" y="297" width="54" height="36" style="overflow: visible; cursor: default;"><text transform="" font-family="Open Sans" text-anchor="middle" x="50%" font-weight="bold" font-size="18pt" y="75%" fill="#000000"><tspan>T3</tspan></text></svg></g></g></g><g pointer-events="auto"><g opacity="1"><g id="eafc4d45-61c8-43dc-8b45-3f451348c601" transform="translate(0 0)"><svg x="225" y="135" overflow="visible"><g transform="scale(0.1415000000000002) "><svg x="-700" y="-490" width="1400" height="980"><svg viewBox="0 0 1400 980" width="1400" height="980"><g><g transform="matrix(49 0 0 -49 210 980)"><path d="M17.64 7.61c.23.75.36 1.56.36 2.39 0 4.42-3.58 8-8 8s-8-3.58-8-8C1.997 3.941 8.47.08 13.8 2.96l1.46-1.46C13.73.56 11.93 0 10 0 4.48 0 0 4.48 0 10s4.48 10 10 10 10-4.48 10-10c0-1.4-.29-2.73-.81-3.95l-1.55 1.56z" fill-rule="evenodd"></path></g><path d="M684.035 584.181L578.938 688.907l136.09.625 81.253-81.059 314.96 311.61 137-.344-72.156-72.039-221.142-221.142L833.976 505.44l-37.254-37.55s-20.542 21.142-30.597 30.849c-28.414 27.432-82.09 85.441-82.09 85.441z" stroke="#000" stroke-width="0" paint-order="fill"></path></g></svg></svg></g></svg></g></g></g><g pointer-events="auto"><g opacity="1"><g id="feb8f89e-d974-4ea8-a4f6-95e91525a639" transform="translate(0 0)"><svg x="135" y="585" overflow="visible"><g transform="scale(1.118033988749895) "><circle cx="0" cy="0" fill="#000000" r="23"></circle><svg width="18" height="32" x="-9" y="-16" style="fill: rgb(255, 255, 255);"><svg xmlns="http://www.w3.org/2000/svg" width="18" height="32" viewBox="0 0 18 32"><path d="M5.143 26.286a1.715 1.715 0 1 0-3.43.002 1.715 1.715 0 0 0 3.43-.002zm0-20.572a1.715 1.715 0 1 0-3.43.002 1.715 1.715 0 0 0 3.43-.002zM16.571 8a1.715 1.715 0 1 0-3.43.002A1.715 1.715 0 0 0 16.571 8zm1.715 0a3.428 3.428 0 0 1-1.714 2.964c-.054 6.446-4.625 7.875-7.661 8.839-2.839.893-3.768 1.321-3.768 3.054v.464a3.428 3.428 0 0 1 1.714 2.964 3.43 3.43 0 0 1-6.858 0c0-1.268.696-2.375 1.714-2.964V8.678A3.428 3.428 0 0 1-.001 5.714a3.43 3.43 0 0 1 6.858 0 3.428 3.428 0 0 1-1.714 2.964v8.875c.911-.446 1.875-.75 2.75-1.018 3.321-1.054 5.214-1.839 5.25-5.571A3.428 3.428 0 0 1 11.429 8a3.43 3.43 0 0 1 6.858 0z"></path></svg></svg></g></svg></g></g><g opacity="1"><g id="3fdf0f9c-c2f3-4fe1-9fbc-879e53dcfdeb" transform="translate(0 0)"><svg x="315" y="765" overflow="visible"><g transform="scale(0.7155417527999328) "><circle cx="0" cy="0" fill="#000000" r="23"></circle><svg width="27" height="32" x="-13.5" y="-16" style="fill: rgb(255, 255, 255);"><svg xmlns="http://www.w3.org/2000/svg" width="27" height="32" viewBox="0 0 27 32"><path d="M27.429 16c0 7.571-6.143 13.714-13.714 13.714S.001 23.571.001 16 6.144 2.286 13.715 2.286 27.429 8.429 27.429 16z"></path></svg></svg></g></svg></g></g><g opacity="1"><g id="09b9d077-9e7e-4980-9ff9-069f94cf2d59" transform="translate(0 0)"><svg x="765" y="585" overflow="visible"><g transform="scale(1.118033988749895) "><circle cx="0" cy="0" fill="#000000" r="23"></circle><svg width="27" height="32" x="-13.5" y="-16" style="fill: rgb(255, 255, 255);"><svg xmlns="http://www.w3.org/2000/svg" width="27" height="32" viewBox="0 0 27 32"><path d="M8 8c0-1.268-1.018-2.286-2.286-2.286S3.428 6.732 3.428 8s1.018 2.286 2.286 2.286S8 9.268 8 8zm19.054 10.286c0 .607-.25 1.196-.661 1.607l-8.768 8.786c-.429.411-1.018.661-1.625.661s-1.196-.25-1.607-.661L1.625 15.893C.714 15 0 13.268 0 12V4.571a2.302 2.302 0 0 1 2.286-2.286h7.429c1.268 0 3 .714 3.911 1.625l12.768 12.75c.411.429.661 1.018.661 1.625z"></path></svg></svg></g></svg></g></g><g opacity="1"><g id="3a675d19-de7f-435d-be52-d2aaebdc11c6" transform="translate(0 0)"><svg x="585" y="585" overflow="visible"><g transform="scale(1.118033988749895) "><circle cx="0" cy="0" fill="#000000" r="24"></circle><svg width="34" height="32" x="-17" y="-16" style="fill: rgb(255, 255, 255);"><svg xmlns="http://www.w3.org/2000/svg" width="34" height="32" viewBox="0 0 34 32"><path d="M11.018 24.982l-.893.893a.571.571 0 0 1-.821 0L.983 17.554a.571.571 0 0 1 0-.821l8.321-8.321a.571.571 0 0 1 .821 0l.893.893a.571.571 0 0 1 0 .821L4 17.144l7.018 7.018a.571.571 0 0 1 0 .821zM21.571 5.929L14.91 28.983c-.089.304-.411.482-.696.393l-1.107-.304a.579.579 0 0 1-.393-.714l6.661-23.054c.089-.304.411-.482.696-.393l1.107.304a.579.579 0 0 1 .393.714zm11.733 11.625l-8.321 8.321a.571.571 0 0 1-.821 0l-.893-.893a.571.571 0 0 1 0-.821l7.018-7.018-7.018-7.018a.571.571 0 0 1 0-.821l.893-.893a.571.571 0 0 1 .821 0l8.321 8.321a.571.571 0 0 1 0 .821z"></path></svg></svg></g></svg></g></g><g opacity="1"><g id="3dc45578-8913-4e54-b7c8-34632598cf6e" transform="translate(0 0)"><svg x="945" y="585" overflow="visible"><g transform="scale(1.118033988749895) "><circle cx="0" cy="0" fill="#000000" r="23"></circle><svg width="27" height="32" x="-13.5" y="-16" style="fill: rgb(255, 255, 255);"><svg xmlns="http://www.w3.org/2000/svg" width="27" height="32" viewBox="0 0 27 32"><path d="M8 8c0-1.268-1.018-2.286-2.286-2.286S3.428 6.732 3.428 8s1.018 2.286 2.286 2.286S8 9.268 8 8zm19.054 10.286c0 .607-.25 1.196-.661 1.607l-8.768 8.786c-.429.411-1.018.661-1.625.661s-1.196-.25-1.607-.661L1.625 15.893C.714 15 0 13.268 0 12V4.571a2.302 2.302 0 0 1 2.286-2.286h7.429c1.268 0 3 .714 3.911 1.625l12.768 12.75c.411.429.661 1.018.661 1.625z"></path></svg></svg></g></svg></g></g><g opacity="1"><g id="126243a7-6cf9-4687-a697-e26a109ffb7b" transform="translate(0 0)"><svg x="405" y="765" overflow="visible"><g transform="scale(0.7155417527999328) "><circle cx="0" cy="0" fill="#000000" r="23"></circle><svg width="27" height="32" x="-13.5" y="-16" style="fill: rgb(255, 255, 255);"><svg xmlns="http://www.w3.org/2000/svg" width="27" height="32" viewBox="0 0 27 32"><path d="M27.429 16c0 7.571-6.143 13.714-13.714 13.714S.001 23.571.001 16 6.144 2.286 13.715 2.286 27.429 8.429 27.429 16z"></path></svg></svg></g></svg></g></g><g opacity="1"><g id="e6fee15f-71fb-48db-bf9c-8ac609a35139" transform="translate(0 0)"><svg x="360" y="765" overflow="visible"><g transform="scale(0.7155417527999328) "><circle cx="0" cy="0" fill="#000000" r="23"></circle><svg width="27" height="32" x="-13.5" y="-16" style="fill: rgb(255, 255, 255);"><svg xmlns="http://www.w3.org/2000/svg" width="27" height="32" viewBox="0 0 27 32"><path d="M27.429 16c0 7.571-6.143 13.714-13.714 13.714S.001 23.571.001 16 6.144 2.286 13.715 2.286 27.429 8.429 27.429 16z"></path></svg></svg></g></svg></g></g><g opacity="1"><g id="a2ffb0c1-61e8-4784-9a6f-cbcab84e0296" transform="translate(0 0)"><svg x="225" y="405" overflow="visible"><g transform="scale(0.8944271909999159) "><circle cx="0" cy="0" fill="#000000" r="23"></circle><svg width="32" height="32" x="-16" y="-16" style="fill: rgb(255, 255, 255);"><svg xmlns="http://www.w3.org/2000/svg" width="32" height="32" viewBox="0 0 32 32"><path d="M17.143 4.571c0-.625-.518-1.143-1.143-1.143s-1.143.518-1.143 1.143.518 1.143 1.143 1.143 1.143-.518 1.143-1.143zM32 21.143v6.286a.586.586 0 0 1-.357.536.888.888 0 0 1-.214.036.63.63 0 0 1-.411-.161l-1.661-1.661c-2.804 3.375-7.839 5.536-13.357 5.536S5.446 29.554 2.643 26.179L.982 27.84a.597.597 0 0 1-.411.161.888.888 0 0 1-.214-.036.585.585 0 0 1-.357-.536v-6.286c0-.321.25-.571.571-.571h6.286c.232 0 .446.143.536.357s.036.446-.125.625L5.482 23.34c1.607 2.161 4.696 3.732 8.232 4.214V16h-3.429a1.151 1.151 0 0 1-1.143-1.143v-2.286c0-.625.518-1.143 1.143-1.143h3.429V8.517a4.557 4.557 0 0 1-2.286-3.946C11.428 2.053 13.482 0 15.999 0s4.571 2.054 4.571 4.571a4.555 4.555 0 0 1-2.286 3.946v2.911h3.429c.625 0 1.143.518 1.143 1.143v2.286c0 .625-.518 1.143-1.143 1.143h-3.429v11.554c3.536-.482 6.625-2.054 8.232-4.214l-1.786-1.786c-.161-.179-.214-.411-.125-.625s.304-.357.536-.357h6.286c.321 0 .571.25.571.571z"></path></svg></svg></g></svg></g></g></g><g pointer-events="auto"><g opacity="1"><g id="f3350fa9-0ea6-4d8b-85f3-4084cf3ca610" transform="translate(0 0)"><svg x="0" y="540" overflow="visible"><text stroke="#ffffff" stroke-width="0" font-family="Open Sans" y="26.24" font-size="16pt" fill="#000000" font-weight="bold" transform="" xml:space="preserve"><tspan x="8" dy="0">main</tspan></text><text font-family="Open Sans" y="26.24" font-size="16pt" fill="#000000" font-weight="bold" transform="" xml:space="preserve"><tspan x="8" dy="0">main</tspan></text></svg></g></g><g opacity="1"><g id="a87db16f-1fc1-4326-94af-a951619f2420" transform="translate(0 0)"><svg x="261" y="902" overflow="visible"><text stroke="#ffffff" stroke-width="0" font-family="Open Sans" y="26.24" font-size="16pt" fill="#000000" font-weight="bold" transform="" xml:space="preserve"><tspan x="8" dy="0">commits</tspan></text><text font-family="Open Sans" y="26.24" font-size="16pt" fill="#000000" font-weight="bold" transform="" xml:space="preserve"><tspan x="8" dy="0">commits</tspan></text></svg></g></g><g opacity="1"><g id="dcf3ad07-94d0-42ec-8251-02e31b01e458" transform="translate(0 0)"><svg x="90" y="428" overflow="visible"><text stroke="#ffffff" stroke-width="0" font-family="Open Sans" y="30.799999999999997" font-size="20pt" fill="#000000" font-weight="bold" transform="" xml:space="preserve"><tspan x="8" dy="0">CI/CD</tspan></text><text font-family="Open Sans" y="30.799999999999997" font-size="20pt" fill="#000000" font-weight="bold" transform="" xml:space="preserve"><tspan x="8" dy="0">CI/CD</tspan></text></svg></g></g><g opacity="1"><g id="d386610d-6954-4ba8-8575-5aecb15d2866" transform="translate(0 0)"><svg x="352" y="230" overflow="visible"><text stroke="#ffffff" stroke-width="0" font-family="Open Sans" y="26.24" font-size="16pt" fill="#000000" font-weight="bold" transform="" xml:space="preserve"><tspan x="8" dy="0">sandbox</tspan></text><text font-family="Open Sans" y="26.24" font-size="16pt" fill="#000000" font-weight="bold" transform="" xml:space="preserve"><tspan x="8" dy="0">sandbox</tspan></text></svg></g></g><g opacity="1"><g id="aba66843-dbe9-47aa-895f-ea7890c6c5bb" transform="translate(0 0)"><svg x="554" y="232" overflow="visible"><text stroke="#ffffff" stroke-width="0" font-family="Open Sans" y="26.24" font-size="16pt" fill="#000000" font-weight="bold" transform="" xml:space="preserve"><tspan x="8" dy="0">dev</tspan></text><text font-family="Open Sans" y="26.24" font-size="16pt" fill="#000000" font-weight="bold" transform="" xml:space="preserve"><tspan x="8" dy="0">dev</tspan></text></svg></g></g><g opacity="1"><g id="758cea1a-0251-4d63-9838-cb081dbe2e4e" transform="translate(0 0)"><svg x="721" y="234" overflow="visible"><text stroke="#ffffff" stroke-width="0" font-family="Open Sans" y="26.24" font-size="16pt" fill="#000000" font-weight="bold" transform="" xml:space="preserve"><tspan x="8" dy="0">live v1</tspan></text><text font-family="Open Sans" y="26.24" font-size="16pt" fill="#000000" font-weight="bold" transform="" xml:space="preserve"><tspan x="8" dy="0">live v1</tspan></text></svg></g></g><g opacity="1"><g id="8245b743-764b-4925-9fea-dea56399784e" transform="translate(0 0)"><svg x="901" y="234" overflow="visible"><text stroke="#ffffff" stroke-width="0" font-family="Open Sans" y="26.24" font-size="16pt" fill="#000000" font-weight="bold" transform="" xml:space="preserve"><tspan x="8" dy="0">live v2</tspan></text><text font-family="Open Sans" y="26.24" font-size="16pt" fill="#000000" font-weight="bold" transform="" xml:space="preserve"><tspan x="8" dy="0">live v2</tspan></text></svg></g></g><g opacity="1"><g id="fa8d5434-48b9-4b98-890f-0a62dec6eb59" transform="translate(0 0)"><svg x="698" y="720" overflow="visible"><text stroke="#ffffff" stroke-width="0" font-family="Open Sans" y="26.24" font-size="16pt" fill="#000000" font-weight="bold" transform="" xml:space="preserve"><tspan x="8" dy="0">tag</tspan></text><text font-family="Open Sans" y="26.24" font-size="16pt" fill="#000000" font-weight="bold" transform="" xml:space="preserve"><tspan x="8" dy="0">tag</tspan></text></svg></g></g><g opacity="1"><g id="0ae7de07-084c-48ca-a944-b42d21350294" transform="translate(0 0)"><svg x="878" y="720" overflow="visible"><text stroke="#ffffff" stroke-width="0" font-family="Open Sans" y="26.24" font-size="16pt" fill="#000000" font-weight="bold" transform="" xml:space="preserve"><tspan x="8" dy="0">tag</tspan></text><text font-family="Open Sans" y="26.24" font-size="16pt" fill="#000000" font-weight="bold" transform="" xml:space="preserve"><tspan x="8" dy="0">tag</tspan></text></svg></g></g></g><g></g></g></svg>