<?xml version="1.0" standalone="no"?>
<!DOCTYPE svg PUBLIC "-//W3C//DTD SVG 1.1//EN"
  "http://www.w3.org/Graphics/SVG/1.1/DTD/svg11.dtd">
<svg version="1.1" xmlns="http://www.w3.org/2000/svg" xmlns:xlink="http://www.w3.org/1999/xlink" width="1280" height="720" viewBox="0 0 1280 1280" id="ccdiagram"><filter id="grayscale"><feColorMatrix type="matrix" values="0.3333 0.3333 0.3333 0 0 0.3333 0.3333 0.3333 0 0 0.3333 0.3333 0.3333 0 0 0 0 0 1 0"></feColorMatrix></filter><defs><style type="text/css">@import url('https://fonts.googleapis.com/css?family=Open+Sans:400,700|Inconsolata:400');</style></defs><g><g pointer-events="auto"><g opacity="1"><g><g><polygon points="90 90, 945 90, 945 180, 90 180" fill="rgba(0, 0, 0, 0)" stroke-width="0" stroke="#818181"></polygon></g></g></g><g opacity="1"><g><g><polygon points="90 540, 450 540, 450 990, 90 990" fill="rgba(0, 0, 0, 0)" stroke-width="0" stroke="#818181"></polygon></g></g></g><g opacity="1"><g><g><polygon points="810 540, 945 540, 945 990, 810 990" fill="rgba(0, 0, 0, 0)" stroke-width="0" stroke="#818181"></polygon></g></g></g></g><g pointer-events="auto"></g><g></g><g pointer-events="auto"><g opacity="1"><g id="2916f8cc-32e6-40a3-a2a6-e75cd3d4a7c9"><g><g><polygon points="990 270, 1035 225, 1035 45, 990 0, 0 0, 0 225, 45 270" stroke="#3f51b5" stroke-width="8" fill="none"></polygon></g><g><polygon points="0 0, -45 0, -45 180, 0 225" stroke="#3f51b5" stroke-width="8" fill="#3f51b5"></polygon><text font-family="Inconsolata" font-size="20pt" font-weight="bold" fill="#ffffff" transform="translate(-13 43) rotate(270)" text-anchor="end">aws</text><g transform="translate(-39 6) "><svg width="34" height="32" style="fill: rgb(255, 255, 255);"><svg xmlns="http://www.w3.org/2000/svg" width="34" height="32" viewBox="0 0 34 32"><path d="M34.286 20.571a6.858 6.858 0 0 1-6.857 6.857H8c-4.411 0-8-3.589-8-8a7.993 7.993 0 0 1 4.607-7.232c-.018-.25-.036-.518-.036-.768a9.137 9.137 0 0 1 9.143-9.143c3.821 0 7.089 2.339 8.464 5.679a4.439 4.439 0 0 1 2.964-1.107 4.58 4.58 0 0 1 4.571 4.571 4.49 4.49 0 0 1-.732 2.464c3.036.714 5.304 3.429 5.304 6.679z"></path></svg></svg></g></g></g></g></g><g opacity="1"><g id="64a5813a-e4fd-4e6e-ad46-3b4eb01db456"><g><g><polygon points="495 1080, 540 1035, 540 495, 495 450, 0 450, 0 1035, 45 1080" stroke="#00bcd4" stroke-width="8" fill="none"></polygon></g><g><polygon points="0 450, -45 450, -45 765, 0 810" stroke="#00bcd4" stroke-width="8" fill="#00bcd4"></polygon><text font-family="Inconsolata" font-size="20pt" font-weight="bold" fill="#ffffff" transform="translate(-13 493) rotate(270)" text-anchor="end">github</text><g transform="translate(-39 456) "><svg width="34" height="32" style="fill: rgb(255, 255, 255);"><svg xmlns="http://www.w3.org/2000/svg" width="34" height="32" viewBox="0 0 34 32"><path d="M34.286 20.571a6.858 6.858 0 0 1-6.857 6.857H8c-4.411 0-8-3.589-8-8a7.993 7.993 0 0 1 4.607-7.232c-.018-.25-.036-.518-.036-.768a9.137 9.137 0 0 1 9.143-9.143c3.821 0 7.089 2.339 8.464 5.679a4.439 4.439 0 0 1 2.964-1.107 4.58 4.58 0 0 1 4.571 4.571 4.49 4.49 0 0 1-.732 2.464c3.036.714 5.304 3.429 5.304 6.679z"></path></svg></svg></g></g></g></g></g><g opacity="1"><g id="468ba928-16d0-4f9f-b8e9-f7addfd6bd9f"><g><g><polygon points="990 1080, 1035 1035, 1035 495, 990 450, 720 450, 720 1035, 765 1080" stroke="#e91e63" stroke-width="8" fill="none"></polygon></g><g><polygon points="720 450, 675 450, 675 765, 720 810" stroke="#e91e63" stroke-width="8" fill="#e91e63"></polygon><text font-family="Inconsolata" font-size="20pt" font-weight="bold" fill="#ffffff" transform="translate(707 493) rotate(270)" text-anchor="end">assay.it</text><g transform="translate(681 456) "><svg width="34" height="32" style="fill: rgb(255, 255, 255);"><svg xmlns="http://www.w3.org/2000/svg" width="34" height="32" viewBox="0 0 34 32"><path d="M34.286 20.571a6.858 6.858 0 0 1-6.857 6.857H8c-4.411 0-8-3.589-8-8a7.993 7.993 0 0 1 4.607-7.232c-.018-.25-.036-.518-.036-.768a9.137 9.137 0 0 1 9.143-9.143c3.821 0 7.089 2.339 8.464 5.679a4.439 4.439 0 0 1 2.964-1.107 4.58 4.58 0 0 1 4.571 4.571 4.49 4.49 0 0 1-.732 2.464c3.036.714 5.304 3.429 5.304 6.679z"></path></svg></svg></g></g></g></g></g></g><g></g><g pointer-events="auto"></g><g pointer-events="none"></g><g pointer-events="auto"><g><g cursor="cell"><line x1="405" y1="585" x2="662" y2="585" stroke="red" stroke-width="8" opacity="0"></line><line x1="405" y1="585" x2="662" y2="585" stroke="#000000" stroke-width="2" stroke-linecap="round"></line><polygon points="675 585, 651 574, 657 585, 651 596, 675 585" stroke-linejoin="round" fill="#000000" stroke="#000000" stroke-width="1"></polygon></g></g><g><g cursor="cell"><line x1="135" y1="135" x2="436" y2="135" stroke="red" stroke-width="8" opacity="0"></line><line x1="135" y1="135" x2="436" y2="135" stroke="#000000" stroke-width="2" stroke-linecap="round"></line><polygon points="450 135, 426 124, 432 135, 426 146, 450 135" stroke-linejoin="round" fill="#000000" stroke="#000000" stroke-width="1"></polygon></g></g><g><g cursor="cell"><line x1="419" y1="855" x2="720" y2="855" stroke="red" stroke-width="8" opacity="0"></line><line x1="419" y1="855" x2="720" y2="855" stroke="#000000" stroke-width="2" stroke-linecap="round"></line><polygon points="405 855, 429 866, 423 855, 429 844, 405 855" stroke-linejoin="round" fill="#000000" stroke="#000000" stroke-width="1"></polygon></g></g><g><g cursor="cell"><line x1="405" y1="585" x2="135" y2="585" stroke="red" stroke-width="8" opacity="0"></line><line x1="405" y1="585" x2="135" y2="585" stroke="#000000" stroke-width="2" stroke-linecap="round"></line></g></g><g><g cursor="cell"><line x1="855" y1="194" x2="855" y2="450" stroke="red" stroke-width="8" opacity="0"></line><line x1="855" y1="194" x2="855" y2="450" stroke="#000000" stroke-width="2" stroke-linecap="round"></line><polygon points="855 180, 844 204, 855 198, 866 204, 855 180" stroke-linejoin="round" fill="#000000" stroke="#000000" stroke-width="1"></polygon></g></g><g><g cursor="cell"><line x1="391" y1="855" x2="149" y2="855" stroke="red" stroke-width="8" opacity="0"></line><line x1="391" y1="855" x2="149" y2="855" stroke="#000000" stroke-width="2" stroke-linecap="round"></line><polygon points="405 855, 381 844, 387 855, 381 866, 405 855" stroke-linejoin="round" fill="#000000" stroke="#000000" stroke-width="1"></polygon><polygon points="135 855, 159 866, 153 855, 159 844, 135 855" stroke-linejoin="round" fill="#000000" stroke="#000000" stroke-width="1"></polygon></g></g><g><g cursor="cell"><line x1="135" y1="585" x2="135" y2="135" stroke="red" stroke-width="8" opacity="0"></line><line x1="135" y1="585" x2="135" y2="135" stroke="#000000" stroke-width="2" stroke-linecap="round"></line></g></g><g><g cursor="cell"><line x1="405" y1="855" x2="405" y2="599" stroke="red" stroke-width="8" opacity="0"></line><line x1="405" y1="855" x2="405" y2="599" stroke="#000000" stroke-width="2" stroke-linecap="round"></line><polygon points="405 585, 394 609, 405 603, 416 609, 405 585" stroke-linejoin="round" fill="#000000" stroke="#000000" stroke-width="1"></polygon></g></g><g><g cursor="cell"><line x1="405" y1="1215" x2="405" y2="869" stroke="red" stroke-width="8" opacity="0"></line><line x1="405" y1="1215" x2="405" y2="869" stroke="#000000" stroke-width="2" stroke-linecap="round"></line><polygon points="405 855, 394 879, 405 873, 416 879, 405 855" stroke-linejoin="round" fill="#000000" stroke="#000000" stroke-width="1"></polygon></g></g></g><g pointer-events="auto"><g opacity="1"><g id="dffb4f48-404e-47c0-9c59-2d1b62f20203" transform="translate(0 0)"><svg x="450" y="90" height="90" id="svg51" width="90" version="1.1"><defs id="defs4"></defs><g id="Working" transform="translate(0 40)"><g id="g883" transform="matrix(1.83333 0 0 1.83333 -.833 -40.833)"><path class="cls-1" id="path8" d="M44.31 44.31H5.69V5.69h38.62zm-36.62-2h34.62V7.69H7.69z" fill="#000" fill-opacity="1"></path><path class="cls-1" id="rect10" d="M11.21 1h2v5.69h-2z" fill="#000" fill-opacity="1"></path><path class="cls-1" id="rect12" d="M17.48 1h2v5.69h-2z" fill="#000" fill-opacity="1"></path><path class="cls-1" id="rect14" d="M23.76 1h2v5.69h-2z" fill="#000" fill-opacity="1"></path><path class="cls-1" id="rect16" d="M30.04 1h2v5.69h-2z" fill="#000" fill-opacity="1"></path><path class="cls-1" id="rect18" d="M36.32 1h2v5.69h-2z" fill="#000" fill-opacity="1"></path><path class="cls-1" id="rect20" d="M11.21 43.31h2V49h-2z" fill="#000" fill-opacity="1"></path><path class="cls-1" id="rect22" d="M17.48 43.31h2V49h-2z" fill="#000" fill-opacity="1"></path><path class="cls-1" id="rect24" d="M23.76 43.31h2V49h-2z" fill="#000" fill-opacity="1"></path><path class="cls-1" id="rect26" d="M30.04 43.31h2V49h-2z" fill="#000" fill-opacity="1"></path><path class="cls-1" id="rect28" d="M36.32 43.31h2V49h-2z" fill="#000" fill-opacity="1"></path><path class="cls-1" id="rect30" d="M43.31 11.45H49v2h-5.69z" fill="#000" fill-opacity="1"></path><path class="cls-1" id="rect32" d="M43.31 17.72H49v2h-5.69z" fill="#000" fill-opacity="1"></path><path class="cls-1" id="rect34" d="M43.31 24H49v2h-5.69z" fill="#000" fill-opacity="1"></path><path class="cls-1" id="rect36" d="M43.31 30.28H49v2h-5.69z" fill="#000" fill-opacity="1"></path><path class="cls-1" id="rect38" d="M43.31 36.55H49v2h-5.69z" fill="#000" fill-opacity="1"></path><path class="cls-1" id="rect40" d="M1 11.45h5.69v2H1z" fill="#000" fill-opacity="1"></path><path class="cls-1" id="rect42" d="M1 17.72h5.69v2H1z" fill="#000" fill-opacity="1"></path><path class="cls-1" id="rect44" d="M1 24h5.69v2H1z" fill="#000" fill-opacity="1"></path><path class="cls-1" id="rect46" d="M1 30.28h5.69v2H1z" fill="#000" fill-opacity="1"></path><path class="cls-1" id="rect48" d="M1 36.55h5.69v2H1z" fill="#000" fill-opacity="1"></path><path id="rect836" d="M7.69 7.69h34.62v34.62H7.69z" fill="#000" fill-opacity="1" opacity=".05" stroke="#000" stroke-opacity="0" stroke-width=".545"></path></g></g></svg><svg x="468" y="117" width="54" height="36" style="overflow: visible; cursor: default;"><text transform="" font-family="Open Sans" text-anchor="middle" x="50%" font-weight="bold" font-size="18pt" y="75%" fill="#000000"><tspan>T3</tspan></text></svg></g></g><g opacity="1"><g id="6b4694c4-22d8-4123-a750-fe30ba2983f3" transform="translate(0 0)"><svg x="630" y="90" height="90" id="svg51" width="90" version="1.1"><defs id="defs4"></defs><g id="Working" transform="translate(0 40)"><g id="g883" transform="matrix(1.83333 0 0 1.83333 -.833 -40.833)"><path class="cls-1" id="path8" d="M44.31 44.31H5.69V5.69h38.62zm-36.62-2h34.62V7.69H7.69z" fill="#000" fill-opacity="1"></path><path class="cls-1" id="rect10" d="M11.21 1h2v5.69h-2z" fill="#000" fill-opacity="1"></path><path class="cls-1" id="rect12" d="M17.48 1h2v5.69h-2z" fill="#000" fill-opacity="1"></path><path class="cls-1" id="rect14" d="M23.76 1h2v5.69h-2z" fill="#000" fill-opacity="1"></path><path class="cls-1" id="rect16" d="M30.04 1h2v5.69h-2z" fill="#000" fill-opacity="1"></path><path class="cls-1" id="rect18" d="M36.32 1h2v5.69h-2z" fill="#000" fill-opacity="1"></path><path class="cls-1" id="rect20" d="M11.21 43.31h2V49h-2z" fill="#000" fill-opacity="1"></path><path class="cls-1" id="rect22" d="M17.48 43.31h2V49h-2z" fill="#000" fill-opacity="1"></path><path class="cls-1" id="rect24" d="M23.76 43.31h2V49h-2z" fill="#000" fill-opacity="1"></path><path class="cls-1" id="rect26" d="M30.04 43.31h2V49h-2z" fill="#000" fill-opacity="1"></path><path class="cls-1" id="rect28" d="M36.32 43.31h2V49h-2z" fill="#000" fill-opacity="1"></path><path class="cls-1" id="rect30" d="M43.31 11.45H49v2h-5.69z" fill="#000" fill-opacity="1"></path><path class="cls-1" id="rect32" d="M43.31 17.72H49v2h-5.69z" fill="#000" fill-opacity="1"></path><path class="cls-1" id="rect34" d="M43.31 24H49v2h-5.69z" fill="#000" fill-opacity="1"></path><path class="cls-1" id="rect36" d="M43.31 30.28H49v2h-5.69z" fill="#000" fill-opacity="1"></path><path class="cls-1" id="rect38" d="M43.31 36.55H49v2h-5.69z" fill="#000" fill-opacity="1"></path><path class="cls-1" id="rect40" d="M1 11.45h5.69v2H1z" fill="#000" fill-opacity="1"></path><path class="cls-1" id="rect42" d="M1 17.72h5.69v2H1z" fill="#000" fill-opacity="1"></path><path class="cls-1" id="rect44" d="M1 24h5.69v2H1z" fill="#000" fill-opacity="1"></path><path class="cls-1" id="rect46" d="M1 30.28h5.69v2H1z" fill="#000" fill-opacity="1"></path><path class="cls-1" id="rect48" d="M1 36.55h5.69v2H1z" fill="#000" fill-opacity="1"></path><path id="rect836" d="M7.69 7.69h34.62v34.62H7.69z" fill="#000" fill-opacity="1" opacity=".05" stroke="#000" stroke-opacity="0" stroke-width=".545"></path></g></g></svg><svg x="648" y="117" width="54" height="36" style="overflow: visible; cursor: default;"><text transform="" font-family="Open Sans" text-anchor="middle" x="50%" font-weight="bold" font-size="18pt" y="75%" fill="#000000"><tspan>T3</tspan></text></svg></g></g><g opacity="1"><g id="3a022475-6bf2-4525-9c0b-df2e64994abc" transform="translate(0 0)"><svg x="810" y="90" height="90" id="svg51" width="90" version="1.1"><defs id="defs4"></defs><g id="Working" transform="translate(0 40)"><g id="g883" transform="matrix(1.83333 0 0 1.83333 -.833 -40.833)"><path class="cls-1" id="path8" d="M44.31 44.31H5.69V5.69h38.62zm-36.62-2h34.62V7.69H7.69z" fill="#000" fill-opacity="1"></path><path class="cls-1" id="rect10" d="M11.21 1h2v5.69h-2z" fill="#000" fill-opacity="1"></path><path class="cls-1" id="rect12" d="M17.48 1h2v5.69h-2z" fill="#000" fill-opacity="1"></path><path class="cls-1" id="rect14" d="M23.76 1h2v5.69h-2z" fill="#000" fill-opacity="1"></path><path class="cls-1" id="rect16" d="M30.04 1h2v5.69h-2z" fill="#000" fill-opacity="1"></path><path class="cls-1" id="rect18" d="M36.32 1h2v5.69h-2z" fill="#000" fill-opacity="1"></path><path class="cls-1" id="rect20" d="M11.21 43.31h2V49h-2z" fill="#000" fill-opacity="1"></path><path class="cls-1" id="rect22" d="M17.48 43.31h2V49h-2z" fill="#000" fill-opacity="1"></path><path class="cls-1" id="rect24" d="M23.76 43.31h2V49h-2z" fill="#000" fill-opacity="1"></path><path class="cls-1" id="rect26" d="M30.04 43.31h2V49h-2z" fill="#000" fill-opacity="1"></path><path class="cls-1" id="rect28" d="M36.32 43.31h2V49h-2z" fill="#000" fill-opacity="1"></path><path class="cls-1" id="rect30" d="M43.31 11.45H49v2h-5.69z" fill="#000" fill-opacity="1"></path><path class="cls-1" id="rect32" d="M43.31 17.72H49v2h-5.69z" fill="#000" fill-opacity="1"></path><path class="cls-1" id="rect34" d="M43.31 24H49v2h-5.69z" fill="#000" fill-opacity="1"></path><path class="cls-1" id="rect36" d="M43.31 30.28H49v2h-5.69z" fill="#000" fill-opacity="1"></path><path class="cls-1" id="rect38" d="M43.31 36.55H49v2h-5.69z" fill="#000" fill-opacity="1"></path><path class="cls-1" id="rect40" d="M1 11.45h5.69v2H1z" fill="#000" fill-opacity="1"></path><path class="cls-1" id="rect42" d="M1 17.72h5.69v2H1z" fill="#000" fill-opacity="1"></path><path class="cls-1" id="rect44" d="M1 24h5.69v2H1z" fill="#000" fill-opacity="1"></path><path class="cls-1" id="rect46" d="M1 30.28h5.69v2H1z" fill="#000" fill-opacity="1"></path><path class="cls-1" id="rect48" d="M1 36.55h5.69v2H1z" fill="#000" fill-opacity="1"></path><path id="rect836" d="M7.69 7.69h34.62v34.62H7.69z" fill="#000" fill-opacity="1" opacity=".05" stroke="#000" stroke-opacity="0" stroke-width=".545"></path></g></g></svg><svg x="828" y="117" width="54" height="36" style="overflow: visible; cursor: default;"><text transform="" font-family="Open Sans" text-anchor="middle" x="50%" font-weight="bold" font-size="18pt" y="75%" fill="#000000"><tspan>T3</tspan></text></svg></g></g></g><g pointer-events="auto"><g opacity="1"><g id="029f37f0-a7f2-481b-b070-656f5f6616bc" transform="translate(0 0)"><svg x="878" y="765" overflow="visible"><g transform="scale(0.14150000000000001) "><svg x="-700" y="-490" width="1400" height="980"><svg viewBox="0 0 1400 980" width="1400" height="980"><g><g transform="matrix(49 0 0 -49 210 980)"><path d="M17.64 7.61c.23.75.36 1.56.36 2.39 0 4.42-3.58 8-8 8s-8-3.58-8-8C1.997 3.941 8.47.08 13.8 2.96l1.46-1.46C13.73.56 11.93 0 10 0 4.48 0 0 4.48 0 10s4.48 10 10 10 10-4.48 10-10c0-1.4-.29-2.73-.81-3.95l-1.55 1.56z" fill-rule="evenodd"></path></g><path d="M684.035 584.181L578.938 688.907l136.09.625 81.253-81.059 314.96 311.61 137-.344-72.156-72.039-221.142-221.142L833.976 505.44l-37.254-37.55s-20.542 21.142-30.597 30.849c-28.414 27.432-82.09 85.441-82.09 85.441z" stroke="#000" stroke-width="0" paint-order="fill"></path></g></svg></svg></g></svg></g></g></g><g pointer-events="auto"><g opacity="1"><g id="64db7b27-5d3a-475b-b2ef-e30dcf66b685" transform="translate(0 0)"><svg x="405" y="855" overflow="visible"><g transform="scale(1.7469281074217107) "><circle cx="0" cy="0" fill="#000000" r="23"></circle><svg width="18" height="32" x="-9" y="-16" style="fill: rgb(255, 255, 255);"><svg xmlns="http://www.w3.org/2000/svg" width="18" height="32" viewBox="0 0 18 32"><path d="M5.143 26.286a1.715 1.715 0 1 0-3.43.002 1.715 1.715 0 0 0 3.43-.002zm0-20.572a1.715 1.715 0 1 0-3.43.002 1.715 1.715 0 0 0 3.43-.002zM16.571 8a1.715 1.715 0 1 0-3.43.002A1.715 1.715 0 0 0 16.571 8zm1.715 0a3.428 3.428 0 0 1-1.714 2.964c-.054 6.446-4.625 7.875-7.661 8.839-2.839.893-3.768 1.321-3.768 3.054v.464a3.428 3.428 0 0 1 1.714 2.964 3.43 3.43 0 0 1-6.858 0c0-1.268.696-2.375 1.714-2.964V8.678A3.428 3.428 0 0 1-.001 5.714a3.43 3.43 0 0 1 6.858 0 3.428 3.428 0 0 1-1.714 2.964v8.875c.911-.446 1.875-.75 2.75-1.018 3.321-1.054 5.214-1.839 5.25-5.571A3.428 3.428 0 0 1 11.429 8a3.43 3.43 0 0 1 6.858 0z"></path></svg></svg></g></svg></g></g><g opacity="1"><g id="95c76882-5821-4318-8b59-776c99beb4d3" transform="translate(0 0)"><svg x="135" y="855" overflow="visible"><g transform="scale(1.7469281074217107) "><circle cx="0" cy="0" fill="#000000" r="24"></circle><svg width="34" height="32" x="-17" y="-16" style="fill: rgb(255, 255, 255);"><svg xmlns="http://www.w3.org/2000/svg" width="34" height="32" viewBox="0 0 34 32"><path d="M11.018 24.982l-.893.893a.571.571 0 0 1-.821 0L.983 17.554a.571.571 0 0 1 0-.821l8.321-8.321a.571.571 0 0 1 .821 0l.893.893a.571.571 0 0 1 0 .821L4 17.144l7.018 7.018a.571.571 0 0 1 0 .821zM21.571 5.929L14.91 28.983c-.089.304-.411.482-.696.393l-1.107-.304a.579.579 0 0 1-.393-.714l6.661-23.054c.089-.304.411-.482.696-.393l1.107.304a.579.579 0 0 1 .393.714zm11.733 11.625l-8.321 8.321a.571.571 0 0 1-.821 0l-.893-.893a.571.571 0 0 1 0-.821l7.018-7.018-7.018-7.018a.571.571 0 0 1 0-.821l.893-.893a.571.571 0 0 1 .821 0l8.321 8.321a.571.571 0 0 1 0 .821z"></path></svg></svg></g></svg></g></g><g opacity="1"><g id="3c24e44a-550d-4d21-bf18-0871cf5c65a0" transform="translate(0 0)"><svg x="135" y="135" overflow="visible"><g transform="scale(1.2074767078498865) "><circle cx="0" cy="0" fill="transparent" r="37.5"></circle><svg width="75" height="75" x="-37.5" y="-37.5" style=""><svg xmlns="http://www.w3.org/2000/svg" viewBox="0 0 75 75"><g id="Reference"><path id="Pink_Light_BG" data-name="Pink Light BG" fill="#cc2264" d="M0 0h75v75H0z"></path><g id="Product_Icon" data-name="Product Icon"><path d="M62.5 35a8 8 0 0 1-7.5 8.12H40.5v-2H55c.14 0 5.55-.6 5.55-6.13 0-4.64-3.88-5.8-5.54-6.09a1 1 0 0 1-.82-1.14c0-2-.84-3.43-2.31-3.91A3.22 3.22 0 0 0 48.23 25a1 1 0 0 1-1 .39 1 1 0 0 1-.79-.65A10.84 10.84 0 0 0 44 20.65a8.94 8.94 0 0 0-10.1-2 9 9 0 0 0-4.4 4.47h-2.2a11.16 11.16 0 0 1 5.79-6.31 10.94 10.94 0 0 1 12.29 2.42 12.33 12.33 0 0 1 2.4 3.44 5.2 5.2 0 0 1 4.67-.67 5.56 5.56 0 0 1 3.66 5.15c3.22.77 6.39 3.2 6.39 7.85zm-28-.87v-7h-20v30h20v-17h2v18a1 1 0 0 1-1 1h-22a1 1 0 0 1-1-1v-32a1 1 0 0 1 1-1h22a1 1 0 0 1 1 1v8zm13 2h-30v2h30zm-22-5h-8v2h8zm3 10h-11v2h11zm-4.09 5h-6.87v2h6.87zm7.09 0h-5v2h5zm22-10h-4v2h4z" fill="#fff"></path></g></g></svg></svg></g></svg></g></g><g opacity="1"><g id="0284210c-750a-41dc-9356-dcfd0cff3634" transform="translate(0 0)"><svg x="135" y="585" overflow="visible"><g transform="scale(1.2074767078498865) "><circle cx="0" cy="0" fill="transparent" r="37.5"></circle><svg width="75" height="75" x="-37.5" y="-37.5" style=""><svg xmlns="http://www.w3.org/2000/svg" width="75" height="75" viewBox="0 0 75 75"><g id="Working"><path id="Green_Light_BG" data-name="Green Light BG" fill="#3b48cc" d="M0 0h75v75H0z"></path><path d="M56 47l-8.49-4.75V32.9A1 1 0 0 0 47 32l-9-5a1 1 0 0 0-1 0l-9 5a1 1 0 0 0-.49.86v9.37L19 47a1 1 0 0 0-.49.87v11a1 1 0 0 0 .5.87l9 5.13a1.05 1.05 0 0 0 .49.13 1.13 1.13 0 0 0 .5-.13L37.51 60l8.54 4.76a1.05 1.05 0 0 0 .49.13.94.94 0 0 0 .48-.13l9-5a1 1 0 0 0 .51-.87v-11A1 1 0 0 0 56 47zM29.54 34.62l7 3.87v7.69l-7-3.89zm16 7.65l-7 3.91V38.5l7-3.9zm-7 7.32l7 4v8.65l-7-3.92zm1-1.7l7-3.88 7 3.9-6.94 3.92zm-2-18.84l6.93 3.85-7 3.86-6.91-3.84zm-17 20.56l7 3.92v8.76l-7-4zm8 2.18l-7-3.88 7-3.89 6.92 3.86zm8 6.5l-7 4v-8.77l7-3.93zm18 0l-7 3.89v-8.62l7-3.94zm11.19-22a10.26 10.26 0 0 1-7.63 10.39l-.61-1.91a8.26 8.26 0 0 0 6.22-8.46c0-6.8-5.6-8.49-8-8.91a1 1 0 0 1-.82-1.13c-.24-3.1-1.69-5.32-3.89-6a4.62 4.62 0 0 0-5 1.81 1 1 0 0 1-1.75-.26A15.5 15.5 0 0 0 40.66 16a12.7 12.7 0 0 0-14.43-2.9c-4.24 1.79-7.56 7-7.56 11.77a14.35 14.35 0 0 0 .09 1.61 1 1 0 0 1-.76 1.08 8.36 8.36 0 0 0-6.73 8.66v.58a8.89 8.89 0 0 0 7 8.13l-.45 1.94a10.88 10.88 0 0 1-8.51-10v-.68a10.22 10.22 0 0 1 7.39-10.32v-1c0-5.64 3.77-11.5 8.78-13.62a14.72 14.72 0 0 1 16.63 3.31 16.94 16.94 0 0 1 3.45 5.13 6.51 6.51 0 0 1 6-1.31c2.9.85 4.84 3.52 5.28 7.21 2.82.66 8.87 2.99 8.87 10.72z" fill="#fff"></path></g></svg></svg></g></svg></g></g><g opacity="1"><g id="195d213d-de0e-4461-bd65-46b15bb77abc" transform="translate(0 0)"><svg x="405" y="585" overflow="visible"><g transform="scale(1.7469281074217107) "><circle cx="0" cy="0" fill="#000000" r="23"></circle><svg width="27" height="32" x="-13.5" y="-16" style="fill: rgb(255, 255, 255);"><svg xmlns="http://www.w3.org/2000/svg" width="27" height="32" viewBox="0 0 27 32"><path d="M13.714 2.286c7.571 0 13.714 6.143 13.714 13.714 0 6.054-3.929 11.196-9.375 13.018-.696.125-.946-.304-.946-.661 0-.446.018-1.929.018-3.768 0-1.286-.429-2.107-.929-2.536 3.054-.339 6.268-1.5 6.268-6.768 0-1.5-.536-2.714-1.411-3.679.143-.357.607-1.75-.143-3.643-1.143-.357-3.768 1.411-3.768 1.411a12.895 12.895 0 0 0-6.858 0S7.659 7.606 6.516 7.963c-.75 1.893-.286 3.286-.143 3.643-.875.964-1.411 2.179-1.411 3.679 0 5.25 3.196 6.429 6.25 6.768-.393.357-.75.964-.875 1.839-.786.357-2.786.964-3.982-1.143-.75-1.304-2.107-1.411-2.107-1.411-1.339-.018-.089.839-.089.839.893.411 1.518 2 1.518 2 .804 2.446 4.625 1.625 4.625 1.625 0 1.143.018 2.214.018 2.554 0 .357-.25.786-.946.661-5.446-1.821-9.375-6.964-9.375-13.018 0-7.571 6.143-13.714 13.714-13.714zM5.196 21.982c.036-.071-.018-.161-.125-.214-.107-.036-.196-.018-.232.036-.036.071.018.161.125.214.089.054.196.036.232-.036zm.554.607c.071-.054.054-.179-.036-.286-.089-.089-.214-.125-.286-.054-.071.054-.054.179.036.286.089.089.214.125.286.054zm.536.804c.089-.071.089-.214 0-.339-.071-.125-.214-.179-.304-.107-.089.054-.089.196 0 .321s.232.179.304.125zm.75.75c.071-.071.036-.232-.071-.339-.125-.125-.286-.143-.357-.054-.089.071-.054.232.071.339.125.125.286.143.357.054zm1.018.446c.036-.107-.071-.232-.232-.286-.143-.036-.304.018-.339.125s.071.232.232.268c.143.054.304 0 .339-.107zm1.125.09c0-.125-.143-.214-.304-.196-.161 0-.286.089-.286.196 0 .125.125.214.304.196.161 0 .286-.089.286-.196zm1.035-.179c-.018-.107-.161-.179-.321-.161-.161.036-.268.143-.25.268.018.107.161.179.321.143s.268-.143.25-.25z"></path></svg></svg></g></svg></g></g><g opacity="1"><g id="0d95d054-65ad-4867-ba74-551b39fb70f6" transform="translate(0 0)"><svg x="405" y="1215" overflow="visible"><g transform="scale(1.7469281074217107) "><circle cx="0" cy="0" fill="#000000" r="23"></circle><svg width="23" height="32" x="-11.5" y="-16" style="fill: rgb(255, 255, 255);"><svg xmlns="http://www.w3.org/2000/svg" width="23" height="32" viewBox="0 0 23 32"><path d="M22.857 24.982c0 2.607-1.714 4.732-3.804 4.732H3.803c-2.089 0-3.804-2.125-3.804-4.732 0-4.696 1.161-10.125 5.839-10.125a7.972 7.972 0 0 0 11.178 0c4.679 0 5.839 5.429 5.839 10.125zM18.286 9.143c0 3.786-3.071 6.857-6.857 6.857s-6.857-3.071-6.857-6.857 3.071-6.857 6.857-6.857 6.857 3.071 6.857 6.857z"></path></svg></svg></g></svg></g></g></g><g pointer-events="auto"><g opacity="1"><g id="7c75deec-ff55-44e9-ac14-fe5f5256bc68" transform="translate(0 0)"><svg x="540" y="113" overflow="visible"><text stroke="#ffffff" stroke-width="0" font-family="Open Sans" y="30.799999999999997" font-size="20pt" fill="#000000" font-weight="bold" transform="" xml:space="preserve"><tspan x="8" dy="0">v1</tspan></text><text font-family="Open Sans" y="30.799999999999997" font-size="20pt" fill="#000000" font-weight="bold" transform="" xml:space="preserve"><tspan x="8" dy="0">v1</tspan></text></svg></g></g><g opacity="1"><g id="20a590d4-f856-4dcc-b9a7-0c517142ed24" transform="translate(0 0)"><svg x="900" y="113" overflow="visible"><text stroke="#ffffff" stroke-width="0" font-family="Open Sans" y="30.799999999999997" font-size="20pt" fill="#000000" font-weight="bold" transform="" xml:space="preserve"><tspan x="8" dy="0">v?</tspan></text><text font-family="Open Sans" y="30.799999999999997" font-size="20pt" fill="#000000" font-weight="bold" transform="" xml:space="preserve"><tspan x="8" dy="0">v?</tspan></text></svg></g></g><g opacity="1"><g id="3c3869b0-0bf9-40dd-8869-68293ed37c2d" transform="translate(0 0)"><svg x="102" y="904" overflow="visible"><text stroke="#ffffff" stroke-width="0" font-family="Open Sans" y="26.24" font-size="16pt" fill="#000000" font-weight="bold" transform="" xml:space="preserve"><tspan x="8" dy="0">main</tspan></text><text font-family="Open Sans" y="26.24" font-size="16pt" fill="#000000" font-weight="bold" transform="" xml:space="preserve"><tspan x="8" dy="0">main</tspan></text></svg></g></g><g opacity="1"><g id="1332c1bc-3180-4876-ac29-300ba69e49ab" transform="translate(0 0)"><svg x="90" y="630" overflow="visible"><text stroke="#ffffff" stroke-width="0" font-family="Open Sans" y="26.24" font-size="16pt" fill="#000000" font-weight="bold" transform="" xml:space="preserve"><tspan x="8" dy="0">cdk cli</tspan></text><text font-family="Open Sans" y="26.24" font-size="16pt" fill="#000000" font-weight="bold" transform="" xml:space="preserve"><tspan x="8" dy="0">cdk cli</tspan></text></svg></g></g><g opacity="1"><g id="8329437c-5c99-48aa-ac19-b3e6db5593fa" transform="translate(0 0)"><svg x="203" y="810" overflow="visible"><text stroke="#ffffff" stroke-width="0" font-family="Open Sans" y="26.24" font-size="16pt" fill="#000000" font-weight="bold" transform="" xml:space="preserve"><tspan x="8" dy="0">pull request</tspan></text><text font-family="Open Sans" y="26.24" font-size="16pt" fill="#000000" font-weight="bold" transform="" xml:space="preserve"><tspan x="8" dy="0">pull request</tspan></text></svg></g></g><g opacity="1"><g id="099c2536-7d26-46e1-8c98-ea77ceeb99e8" transform="translate(0 0)"><svg x="360" y="495" overflow="visible"><text stroke="#ffffff" stroke-width="0" font-family="Open Sans" y="26.24" font-size="16pt" fill="#000000" font-weight="bold" transform="" xml:space="preserve"><tspan x="8" dy="0">actions</tspan></text><text font-family="Open Sans" y="26.24" font-size="16pt" fill="#000000" font-weight="bold" transform="" xml:space="preserve"><tspan x="8" dy="0">actions</tspan></text></svg></g></g><g opacity="1"><g id="c5775703-48a9-4b76-9ec6-9c1a6557df79" transform="translate(0 0)"><svg x="540" y="540" overflow="visible"><text stroke="#ffffff" stroke-width="0" font-family="Open Sans" y="26.24" font-size="16pt" fill="#000000" font-weight="bold" transform="" xml:space="preserve"><tspan x="8" dy="0">webhook</tspan></text><text font-family="Open Sans" y="26.24" font-size="16pt" fill="#000000" font-weight="bold" transform="" xml:space="preserve"><tspan x="8" dy="0">webhook</tspan></text></svg></g></g><g opacity="1"><g id="2307eb2f-dcf6-4ad2-8eda-1a62b1524e6f" transform="translate(0 0)"><svg x="540" y="855" overflow="visible"><text stroke="#ffffff" stroke-width="0" font-family="Open Sans" y="26.24" font-size="16pt" fill="#000000" font-weight="bold" transform="" xml:space="preserve"><tspan x="8" dy="0">commit status</tspan></text><text font-family="Open Sans" y="26.24" font-size="16pt" fill="#000000" font-weight="bold" transform="" xml:space="preserve"><tspan x="8" dy="0">commit status</tspan></text></svg></g></g><g opacity="1"><g id="68d2b39d-e619-447d-a64c-939cf818cb9b" transform="translate(0 0)"><svg x="810" y="428" overflow="visible"><text stroke="#ffffff" stroke-width="0" font-family="Open Sans" y="26.24" font-size="16pt" fill="#000000" font-weight="bold" transform="rotate(270)" xml:space="preserve"><tspan x="8" dy="0">quality check</tspan></text><text font-family="Open Sans" y="26.24" font-size="16pt" fill="#000000" font-weight="bold" transform="rotate(270)" xml:space="preserve"><tspan x="8" dy="0">quality check</tspan></text></svg></g></g><g opacity="1"><g id="cfd860a0-dea5-4a9e-a4b2-c5358c922e9c" transform="translate(0 0)"><svg x="225" y="540" overflow="visible"><text stroke="#ffffff" stroke-width="0" font-family="Open Sans" y="26.24" font-size="16pt" fill="#000000" font-weight="bold" transform="" xml:space="preserve"><tspan x="8" dy="0">deploy</tspan></text><text font-family="Open Sans" y="26.24" font-size="16pt" fill="#000000" font-weight="bold" transform="" xml:space="preserve"><tspan x="8" dy="0">deploy</tspan></text></svg></g></g></g><g></g></g></svg>